Title                            : Contagion
Year                             : 2011
Genre                            : Drama | Thriller
iMDB URL                         : http://www.imdb.com/title/tt1598778/

Complete name                    : ZEK-C.mp4
Format                           : MPEG-4
Format profile                   : Base Media
Codec ID                         : isom
File size                        : 2.95 GiB
Duration                         : 1h 46mn
Overall bit rate                 : 3963 Kbps
Subtitles                        : English (Format: srt)

Video
ID                               : 1
Format                           : AVC
Format/Info                      : Advanced Video Codec
Format profile                   : High@L4.1
Format settings, CABAC           : Yes
Format settings, ReFrames        : 5 frames
Codec ID                         : avc1
Codec ID/Info                    : Advanced Video Coding
Duration                         : 1h 46mn
Bit rate mode                    : Variable
Bit rate                         : 3527 Kbps
Width                            : 1280 pixels
Height                           : 720 pixels
Display aspect ratio             : 16/9
Frame rate mode                  : Constant
Frame rate                       : 23.976 fps
Resolution                       : 24 bits
Colorimetry                      : 4:2:0
Scan type                        : Progressive
Bits/(Pixel*Frame)               : 0.160
Stream size                      : 2.62 GiB (89%)
Title                            : Video
Writing library                  : x264

Audio
ID                               : 2
Format                           : AAC
Format/Info                      : Advanced Audio Codec
Format version                   : Version 4
Format profile                   : LC
Format settings, SBR             : No
Codec ID                         : 40
Duration                         : 1h 46mn
Bit rate mode                    : Variable
Bit rate                         : 432 Kbps
Maximum bit rate                 : 593 Kbps
Channel(s)                       : 6 channels
Channel positions                : Front: L C R, Rear: L R, LFE
Sampling rate                    : 48.0 KHz
Resolution                       : 16 bits
Stream size                      : 329 MiB (11%)
Language                         : English


Screenshots:

[img]http://img846.imageshack.us/img846/7923/snapc1.png[/img]

[img]http://img163.imageshack.us/img163/9056/snapc2.png[/img]

[img]http://img824.imageshack.us/img824/3374/snapc3.png[/img]
